<svg id="svg" version="1.1" xmlns="http://www.w3.org/2000/svg" xmlns:xlink="http://www.w3.org/1999/xlink" width="400" height="400" viewBox="0, 0, 400,400"><g id="svgg"><path id="path0" d="M128.842 67.433 C 122.277 69.199,116.711 74.722,113.752 82.408 L 112.600 85.400 112.504 134.600 C 112.451 161.660,112.541 192.710,112.704 203.600 L 113.000 223.400 116.600 219.977 C 122.253 214.602,133.035 204.476,136.368 201.412 C 138.035 199.879,141.110 196.989,143.200 194.990 C 149.380 189.080,152.495 186.232,154.300 184.842 L 156.000 183.533 156.000 135.324 C 156.000 92.873,155.925 86.822,155.373 84.658 C 152.160 72.057,140.295 64.353,128.842 67.433 M263.000 104.633 C 262.560 104.739,261.390 105.026,260.400 105.270 C 253.837 106.891,248.064 112.229,245.481 119.067 L 244.600 121.400 244.400 172.600 L 244.200 223.800 243.334 225.912 C 236.139 243.456,210.832 245.519,201.773 229.300 C 200.350 226.753,200.431 226.759,199.199 229.094 C 193.910 239.117,180.060 243.532,169.324 238.617 L 167.111 237.604 165.856 238.648 C 164.620 239.675,150.237 253.134,142.800 260.222 C 133.652 268.940,130.774 271.043,126.100 272.424 C 123.949 273.060,123.938 272.986,126.819 277.293 C 146.943 307.379,185.047 320.601,221.539 310.161 C 255.244 300.519,280.757 274.915,287.265 244.200 L 288.197 239.800 288.324 181.400 C 288.460 118.565,288.527 120.732,286.330 116.079 C 282.723 108.440,271.015 102.696,263.000 104.633 M216.368 138.733 C 211.087 140.112,206.800 143.664,204.308 148.726 L 203.000 151.383 203.000 187.192 L 203.000 223.000 204.274 225.689 C 211.097 240.092,232.524 240.106,239.319 225.713 L 240.600 223.000 240.600 187.379 L 240.600 151.759 239.066 148.654 C 234.926 140.278,225.773 136.278,216.368 138.733 M173.555 138.980 C 168.452 140.388,163.921 144.174,161.566 149.000 L 160.200 151.800 160.082 166.750 C 159.969 181.002,159.997 181.686,160.682 181.405 C 177.805 174.381,197.538 190.711,192.997 208.148 C 191.345 214.490,190.117 215.953,173.687 231.156 C 169.391 235.130,169.393 235.143,174.315 236.238 C 184.356 238.472,194.462 233.104,197.203 224.080 C 198.004 221.442,198.019 220.665,197.911 186.593 L 197.800 151.800 196.432 149.000 C 192.447 140.844,182.536 136.504,173.555 138.980 M165.200 184.046 C 161.930 184.569,157.011 187.180,154.193 189.887 C 152.869 191.159,150.439 193.450,148.793 194.979 C 147.147 196.507,144.360 199.121,142.600 200.786 C 140.840 202.452,136.700 206.325,133.400 209.392 C 130.100 212.459,125.510 216.775,123.200 218.984 C 120.890 221.193,115.253 226.510,110.674 230.800 C 101.650 239.254,99.706 241.659,98.603 245.732 C 94.289 261.671,111.917 275.214,127.400 267.855 C 130.330 266.463,134.013 263.388,142.796 255.000 C 145.330 252.580,152.977 245.380,159.789 239.000 C 186.111 214.350,186.284 214.177,187.909 210.821 C 194.789 196.612,181.868 181.377,165.200 184.046 " stroke="none" fill="#242424" fill-rule="evenodd"></path><path id="path1" d="M183.400 9.630 C 173.705 10.516,159.977 12.817,155.000 14.390 C 153.680 14.807,149.630 15.985,146.000 17.008 C 117.993 24.901,92.129 40.009,69.432 61.734 C 65.490 65.507,61.747 69.316,61.116 70.197 C 60.484 71.079,58.922 72.880,57.644 74.200 C 54.589 77.355,51.209 81.678,46.920 87.917 C 44.997 90.713,42.852 93.755,42.152 94.678 C 40.876 96.362,36.175 104.557,33.479 109.800 C 24.188 127.863,19.035 143.055,15.395 163.121 C 14.848 166.134,14.227 169.451,14.014 170.491 C 11.812 181.265,12.037 216.239,14.357 223.751 C 14.570 224.438,14.951 226.350,15.206 228.000 C 17.434 242.433,22.761 260.412,28.302 272.200 C 33.638 283.551,40.328 295.814,42.594 298.400 C 43.076 298.950,44.037 300.343,44.730 301.496 C 46.011 303.630,50.880 310.387,52.763 312.643 C 53.333 313.327,54.147 314.317,54.571 314.843 C 59.509 320.974,69.475 331.316,75.200 336.251 C 85.867 345.447,93.176 350.883,100.800 355.290 C 101.790 355.863,103.860 357.171,105.400 358.198 C 108.999 360.599,121.232 366.555,128.078 369.240 C 131.005 370.389,133.600 371.480,133.843 371.666 C 135.492 372.922,150.797 377.373,160.263 379.348 C 175.054 382.435,186.154 383.384,203.952 383.082 C 226.838 382.695,243.213 379.762,264.704 372.199 C 264.982 372.102,265.321 372.032,265.459 372.045 C 265.598 372.058,265.821 371.906,265.955 371.708 C 266.090 371.509,268.616 370.395,271.569 369.231 C 279.447 366.127,290.840 360.436,296.046 357.004 C 298.551 355.352,300.755 354.001,300.945 354.001 C 301.630 353.999,314.394 344.879,317.600 342.100 C 318.370 341.432,321.250 338.961,324.000 336.609 C 333.850 328.182,346.198 314.340,353.736 303.276 C 354.981 301.448,356.000 299.828,356.001 299.676 C 356.001 299.524,356.529 298.783,357.173 298.029 C 359.833 294.918,371.183 273.795,371.195 271.933 C 371.198 271.567,371.366 271.207,371.568 271.133 C 373.805 270.323,382.374 241.391,384.446 227.652 C 384.899 224.654,385.370 221.930,385.495 221.600 C 387.532 216.182,387.730 182.664,385.783 172.600 C 385.698 172.160,385.355 170.090,385.021 168.000 C 382.511 152.275,377.442 133.755,373.088 124.400 C 372.627 123.410,372.206 122.348,372.152 122.040 C 372.098 121.732,371.901 121.372,371.715 121.240 C 371.529 121.108,370.810 119.740,370.116 118.200 C 369.422 116.660,368.369 114.320,367.774 113.000 C 367.180 111.680,365.483 108.440,364.004 105.800 C 362.524 103.160,360.910 100.280,360.417 99.400 C 359.924 98.520,359.088 97.227,358.560 96.527 C 358.032 95.826,357.600 95.076,357.600 94.860 C 357.600 94.644,357.451 94.407,357.269 94.333 C 357.086 94.260,355.185 91.607,353.043 88.438 C 348.679 81.979,345.365 77.750,341.886 74.200 C 340.592 72.880,339.289 71.350,338.989 70.800 C 338.690 70.250,336.140 67.548,333.323 64.796 C 322.723 54.443,319.023 51.241,311.600 46.004 C 309.290 44.375,307.220 42.837,307.000 42.588 C 306.383 41.889,302.805 39.424,300.800 38.316 C 299.810 37.768,297.740 36.547,296.200 35.602 C 294.660 34.656,291.150 32.739,288.400 31.341 C 285.650 29.944,283.194 28.631,282.943 28.424 C 280.204 26.173,263.196 19.644,252.181 16.615 C 248.451 15.590,244.966 14.573,244.435 14.355 C 241.965 13.340,231.436 11.407,221.600 10.163 C 215.684 9.415,189.717 9.053,183.400 9.630 M140.058 67.186 C 146.889 69.297,152.574 75.096,155.087 82.514 L 156.200 85.800 156.309 134.808 L 156.418 183.817 155.301 184.477 C 154.687 184.840,152.020 187.176,149.375 189.668 C 146.730 192.161,140.443 198.070,135.404 202.800 C 130.365 207.530,123.263 214.225,119.621 217.678 L 113.000 223.956 112.678 217.478 C 112.501 213.915,112.321 183.010,112.278 148.800 L 112.200 86.600 113.138 83.614 C 117.190 70.707,128.709 63.678,140.058 67.186 M272.498 104.774 C 279.865 106.658,286.026 112.414,288.276 119.514 C 289.224 122.507,289.412 233.910,288.479 240.000 C 279.795 296.683,210.097 331.277,157.566 304.979 C 144.526 298.451,129.806 284.768,124.170 273.936 L 123.617 272.873 126.325 272.050 C 130.826 270.683,133.238 268.826,144.800 257.826 C 146.450 256.257,152.083 250.953,157.319 246.040 L 166.838 237.108 169.119 238.124 C 180.330 243.117,194.444 238.602,199.200 228.500 C 200.422 225.904,200.535 225.904,201.849 228.498 C 210.284 245.142,237.232 242.777,243.292 224.860 L 244.192 222.200 244.396 171.200 L 244.600 120.200 245.461 118.102 C 249.904 107.273,260.959 101.823,272.498 104.774 M184.190 138.475 C 190.882 140.176,196.791 146.286,197.998 152.755 C 198.580 155.871,198.539 219.697,197.954 222.480 C 195.540 233.957,182.254 240.508,171.100 235.722 C 169.072 234.852,168.558 235.519,178.397 226.239 C 188.398 216.806,189.543 215.524,191.148 211.963 C 199.595 193.219,181.353 175.405,160.300 181.840 C 159.358 182.128,159.231 155.222,160.158 151.740 C 162.793 141.843,173.715 135.814,184.190 138.475 M230.090 139.307 C 235.683 142.071,239.395 146.424,240.572 151.598 C 241.326 154.911,241.528 218.132,240.798 222.045 C 237.293 240.827,208.857 242.277,203.158 223.964 C 202.078 220.494,201.975 154.381,203.044 150.773 C 206.225 140.034,219.863 134.252,230.090 139.307 M175.227 184.245 C 188.008 188.039,193.999 201.306,187.723 211.915 C 186.150 214.574,183.057 217.693,168.209 231.600 C 163.158 236.330,157.130 242.000,154.812 244.200 C 128.053 269.599,127.488 270.000,118.430 270.000 C 102.594 270.000,93.015 255.423,99.900 241.800 C 101.049 239.527,104.803 235.706,117.785 223.595 C 122.617 219.088,128.649 213.420,131.189 211.000 C 149.652 193.407,155.563 188.030,158.293 186.343 C 162.507 183.738,170.277 182.776,175.227 184.245 " stroke="none" fill="#f7bb24" fill-rule="evenodd"></path><path id="path2" d="M220.500 137.887 C 221.105 137.978,222.095 137.978,222.700 137.887 C 223.305 137.795,222.810 137.720,221.600 137.720 C 220.390 137.720,219.895 137.795,220.500 137.887 M198.191 187.400 C 198.191 205.440,198.240 212.762,198.300 203.670 C 198.360 194.579,198.360 179.819,198.300 170.870 C 198.240 161.922,198.191 169.360,198.191 187.400 M240.991 187.200 C 240.991 205.130,241.040 212.465,241.100 203.500 C 241.160 194.535,241.160 179.865,241.100 170.900 C 241.040 161.935,240.991 169.270,240.991 187.200 M112.134 176.000 C 112.134 177.650,112.205 178.325,112.291 177.500 C 112.378 176.675,112.378 175.325,112.291 174.500 C 112.205 173.675,112.134 174.350,112.134 176.000 M193.320 202.800 C 193.320 204.010,193.395 204.505,193.487 203.900 C 193.578 203.295,193.578 202.305,193.487 201.700 C 193.395 201.095,193.320 201.590,193.320 202.800 M112.524 205.000 C 112.526 206.320,112.601 206.812,112.690 206.093 C 112.779 205.374,112.777 204.294,112.686 203.693 C 112.595 203.092,112.522 203.680,112.524 205.000 M262.975 286.900 L 261.800 288.200 263.100 287.025 C 263.815 286.379,264.400 285.794,264.400 285.725 C 264.400 285.416,264.070 285.688,262.975 286.900 " stroke="none" fill="#9d7a24" fill-rule="evenodd"></path><path id="path3" d="M133.505 66.683 C 134.002 66.779,134.722 66.775,135.105 66.675 C 135.487 66.575,135.080 66.496,134.200 66.501 C 133.320 66.505,133.007 66.587,133.505 66.683 M148.600 72.800 C 149.459 73.680,150.252 74.400,150.362 74.400 C 150.472 74.400,149.859 73.680,149.000 72.800 C 148.141 71.920,147.348 71.200,147.238 71.200 C 147.128 71.200,147.741 71.920,148.600 72.800 M119.375 72.900 L 118.200 74.200 119.500 73.025 C 120.712 71.930,120.984 71.600,120.675 71.600 C 120.606 71.600,120.021 72.185,119.375 72.900 M156.098 136.020 C 156.035 166.784,155.860 183.609,155.601 183.921 C 155.375 184.195,155.462 184.179,155.803 183.885 C 156.332 183.430,156.391 177.701,156.300 135.984 L 156.197 88.600 156.098 136.020 M112.193 131.600 C 112.193 154.590,112.241 163.995,112.300 152.500 C 112.359 141.005,112.359 122.195,112.300 110.700 C 112.241 99.205,112.193 108.610,112.193 131.600 M265.500 104.282 C 265.995 104.378,266.805 104.378,267.300 104.282 C 267.795 104.187,267.390 104.109,266.400 104.109 C 265.410 104.109,265.005 104.187,265.500 104.282 M288.594 178.400 C 288.594 208.430,288.642 220.715,288.700 205.700 C 288.758 190.685,288.758 166.115,288.700 151.100 C 288.642 136.085,288.594 148.370,288.594 178.400 M177.907 138.290 C 178.626 138.379,179.706 138.377,180.307 138.286 C 180.908 138.195,180.320 138.122,179.000 138.124 C 177.680 138.126,177.188 138.201,177.907 138.290 M202.591 187.200 C 202.591 205.790,202.640 213.395,202.700 204.100 C 202.760 194.805,202.760 179.595,202.700 170.300 C 202.640 161.005,202.591 168.610,202.591 187.200 M159.780 168.000 C 159.780 175.590,159.834 178.695,159.899 174.900 C 159.965 171.105,159.965 164.895,159.899 161.100 C 159.834 157.305,159.780 160.410,159.780 168.000 M151.178 187.500 L 149.800 189.000 151.300 187.622 C 152.125 186.863,152.800 186.188,152.800 186.122 C 152.800 185.816,152.462 186.104,151.178 187.500 M153.781 190.100 L 152.200 191.800 153.900 190.219 C 155.481 188.748,155.784 188.400,155.481 188.400 C 155.416 188.400,154.651 189.165,153.781 190.100 M144.987 193.300 L 142.600 195.800 145.100 193.413 C 147.422 191.195,147.783 190.800,147.487 190.800 C 147.426 190.800,146.301 191.925,144.987 193.300 M147.781 195.700 L 146.200 197.400 147.900 195.819 C 149.481 194.348,149.784 194.000,149.481 194.000 C 149.416 194.000,148.651 194.765,147.781 195.700 M112.546 199.000 C 112.547 201.200,112.614 202.049,112.695 200.887 C 112.776 199.724,112.776 197.924,112.693 196.887 C 112.611 195.849,112.545 196.800,112.546 199.000 M137.775 200.100 L 136.600 201.400 137.900 200.225 C 139.112 199.130,139.384 198.800,139.075 198.800 C 139.006 198.800,138.421 199.385,137.775 200.100 M141.600 201.400 C 140.628 202.390,139.923 203.200,140.033 203.200 C 140.143 203.200,141.028 202.390,142.000 201.400 C 142.972 200.410,143.677 199.600,143.567 199.600 C 143.457 199.600,142.572 200.410,141.600 201.400 M189.728 202.800 C 189.728 204.230,189.801 204.815,189.889 204.100 C 189.978 203.385,189.978 202.215,189.889 201.500 C 189.801 200.785,189.728 201.370,189.728 202.800 M131.986 205.500 L 129.800 207.800 132.100 205.614 C 134.237 203.582,134.583 203.200,134.286 203.200 C 134.224 203.200,133.189 204.235,131.986 205.500 M134.800 207.800 C 133.828 208.790,133.123 209.600,133.233 209.600 C 133.343 209.600,134.228 208.790,135.200 207.800 C 136.172 206.810,136.877 206.000,136.767 206.000 C 136.657 206.000,135.772 206.810,134.800 207.800 M124.800 212.200 C 123.828 213.190,123.123 214.000,123.233 214.000 C 123.343 214.000,124.228 213.190,125.200 212.200 C 126.172 211.210,126.877 210.400,126.767 210.400 C 126.657 210.400,125.772 211.210,124.800 212.200 M128.575 213.700 L 127.400 215.000 128.700 213.825 C 129.912 212.730,130.184 212.400,129.875 212.400 C 129.806 212.400,129.221 212.985,128.575 213.700 M118.585 218.100 L 116.600 220.200 118.700 218.215 C 119.855 217.123,120.800 216.178,120.800 216.115 C 120.800 215.817,120.429 216.149,118.585 218.100 M121.186 220.700 L 119.000 223.000 121.300 220.814 C 123.437 218.782,123.783 218.400,123.486 218.400 C 123.424 218.400,122.389 219.435,121.186 220.700 M178.185 221.700 L 176.200 223.800 178.300 221.815 C 179.455 220.723,180.400 219.778,180.400 219.715 C 180.400 219.417,180.029 219.749,178.185 221.700 M180.400 224.600 C 179.428 225.590,178.723 226.400,178.833 226.400 C 178.943 226.400,179.828 225.590,180.800 224.600 C 181.772 223.610,182.477 222.800,182.367 222.800 C 182.257 222.800,181.372 223.610,180.400 224.600 M115.375 226.100 L 114.200 227.400 115.500 226.225 C 116.712 225.130,116.984 224.800,116.675 224.800 C 116.606 224.800,116.021 225.385,115.375 226.100 M203.600 224.953 C 203.600 225.382,204.790 227.600,205.021 227.600 C 205.131 227.600,204.923 227.015,204.559 226.300 C 203.817 224.840,203.600 224.536,203.600 224.953 M170.778 228.700 L 169.400 230.200 170.900 228.822 C 172.296 227.538,172.584 227.200,172.278 227.200 C 172.212 227.200,171.537 227.875,170.778 228.700 M174.800 229.800 C 173.828 230.790,173.123 231.600,173.233 231.600 C 173.343 231.600,174.228 230.790,175.200 229.800 C 176.172 228.810,176.877 228.000,176.767 228.000 C 176.657 228.000,175.772 228.810,174.800 229.800 M207.583 230.900 C 208.564 231.945,209.419 232.800,209.483 232.800 C 209.784 232.800,209.466 232.441,207.700 230.783 L 205.800 229.000 207.583 230.900 M235.375 231.300 L 234.200 232.600 235.500 231.425 C 236.215 230.779,236.800 230.194,236.800 230.125 C 236.800 229.816,236.470 230.088,235.375 231.300 M107.785 233.300 L 105.800 235.400 107.900 233.415 C 109.055 232.323,110.000 231.378,110.000 231.315 C 110.000 231.017,109.629 231.349,107.785 233.300 M205.183 233.700 C 206.841 235.466,207.200 235.784,207.200 235.483 C 207.200 235.419,206.345 234.564,205.300 233.583 L 203.400 231.800 205.183 233.700 M164.800 234.200 C 163.828 235.190,163.123 236.000,163.233 236.000 C 163.343 236.000,164.228 235.190,165.200 234.200 C 166.172 233.210,166.877 232.400,166.767 232.400 C 166.657 232.400,165.772 233.210,164.800 234.200 M219.105 236.683 C 219.602 236.779,220.322 236.775,220.705 236.675 C 221.087 236.575,220.680 236.496,219.800 236.501 C 218.920 236.505,218.607 236.587,219.105 236.683 M223.105 236.683 C 223.602 236.779,224.322 236.775,224.705 236.675 C 225.087 236.575,224.680 236.496,223.800 236.501 C 222.920 236.505,222.607 236.587,223.105 236.683 M177.907 237.090 C 178.626 237.179,179.706 237.177,180.307 237.086 C 180.908 236.995,180.320 236.922,179.000 236.924 C 177.680 236.926,177.188 237.001,177.907 237.090 M158.000 240.600 C 157.028 241.590,156.323 242.400,156.433 242.400 C 156.543 242.400,157.428 241.590,158.400 240.600 C 159.372 239.610,160.077 238.800,159.967 238.800 C 159.857 238.800,158.972 239.610,158.000 240.600 M177.500 240.689 C 178.215 240.778,179.385 240.778,180.100 240.689 C 180.815 240.601,180.230 240.528,178.800 240.528 C 177.370 240.528,176.785 240.601,177.500 240.689 M161.381 242.500 L 159.800 244.200 161.500 242.619 C 163.081 241.148,163.384 240.800,163.081 240.800 C 163.016 240.800,162.251 241.565,161.381 242.500 M151.381 246.900 L 149.800 248.600 151.500 247.019 C 153.081 245.548,153.384 245.200,153.081 245.200 C 153.016 245.200,152.251 245.965,151.381 246.900 M153.988 249.500 L 151.400 252.200 154.100 249.612 C 155.585 248.188,156.800 246.973,156.800 246.912 C 156.800 246.617,156.393 246.992,153.988 249.500 M97.709 250.800 C 97.709 251.790,97.787 252.195,97.882 251.700 C 97.978 251.205,97.978 250.395,97.882 249.900 C 97.787 249.405,97.709 249.810,97.709 250.800 M144.985 252.900 L 143.000 255.000 145.100 253.015 C 146.255 251.923,147.200 250.978,147.200 250.915 C 147.200 250.617,146.829 250.949,144.985 252.900 M148.000 255.000 C 147.028 255.990,146.323 256.800,146.433 256.800 C 146.543 256.800,147.428 255.990,148.400 255.000 C 149.372 254.010,150.077 253.200,149.967 253.200 C 149.857 253.200,148.972 254.010,148.000 255.000 M137.775 259.700 L 136.600 261.000 137.900 259.825 C 139.112 258.730,139.384 258.400,139.075 258.400 C 139.006 258.400,138.421 258.985,137.775 259.700 M140.987 261.700 L 138.600 264.200 141.100 261.813 C 142.475 260.499,143.600 259.374,143.600 259.313 C 143.600 259.017,143.205 259.378,140.987 261.700 M103.183 263.700 C 104.841 265.466,105.200 265.784,105.200 265.483 C 105.200 265.419,104.345 264.564,103.300 263.583 L 101.400 261.800 103.183 263.700 M132.778 264.300 L 131.400 265.800 132.900 264.422 C 134.296 263.138,134.584 262.800,134.278 262.800 C 134.212 262.800,133.537 263.475,132.778 264.300 M135.375 266.900 L 134.200 268.200 135.500 267.025 C 136.712 265.930,136.984 265.600,136.675 265.600 C 136.606 265.600,136.021 266.185,135.375 266.900 M268.575 280.900 L 267.400 282.200 268.700 281.025 C 269.415 280.379,270.000 279.794,270.000 279.725 C 270.000 279.416,269.670 279.688,268.575 280.900 M133.600 286.510 C 133.600 286.571,134.995 287.966,136.700 289.610 L 139.800 292.600 136.810 289.500 C 134.033 286.621,133.600 286.217,133.600 286.510 M195.300 313.887 C 195.905 313.978,196.895 313.978,197.500 313.887 C 198.105 313.795,197.610 313.720,196.400 313.720 C 195.190 313.720,194.695 313.795,195.300 313.887 " stroke="none" fill="#8d6c24" fill-rule="evenodd"></path><path id="path4" d="M288.994 178.400 C 288.994 208.210,289.042 220.405,289.100 205.500 C 289.158 190.595,289.158 166.205,289.100 151.300 C 289.042 136.395,288.994 148.590,288.994 178.400 M227.600 138.600 C 229.426 139.303,230.145 139.293,228.600 138.586 C 227.940 138.283,227.130 138.042,226.800 138.048 C 226.470 138.055,226.830 138.303,227.600 138.600 M112.146 182.600 C 112.147 184.800,112.214 185.649,112.295 184.487 C 112.376 183.324,112.376 181.524,112.293 180.487 C 112.211 179.449,112.145 180.400,112.146 182.600 M168.705 180.283 C 169.202 180.379,169.922 180.375,170.305 180.275 C 170.687 180.175,170.280 180.096,169.400 180.101 C 168.520 180.105,168.207 180.187,168.705 180.283 M152.778 190.700 L 151.400 192.200 152.900 190.822 C 153.725 190.063,154.400 189.388,154.400 189.322 C 154.400 189.016,154.062 189.304,152.778 190.700 M146.400 192.200 C 145.428 193.190,144.723 194.000,144.833 194.000 C 144.943 194.000,145.828 193.190,146.800 192.200 C 147.772 191.210,148.477 190.400,148.367 190.400 C 148.257 190.400,147.372 191.210,146.400 192.200 M146.585 196.500 L 144.600 198.600 146.700 196.615 C 147.855 195.523,148.800 194.578,148.800 194.515 C 148.800 194.217,148.429 194.549,146.585 196.500 M140.175 198.100 L 139.000 199.400 140.300 198.225 C 141.015 197.579,141.600 196.994,141.600 196.925 C 141.600 196.616,141.270 196.888,140.175 198.100 M190.114 203.000 C 190.117 204.100,190.195 204.503,190.287 203.895 C 190.379 203.286,190.377 202.386,190.282 201.895 C 190.187 201.403,190.111 201.900,190.114 203.000 M139.375 203.300 L 138.200 204.600 139.500 203.425 C 140.712 202.330,140.984 202.000,140.675 202.000 C 140.606 202.000,140.021 202.585,139.375 203.300 M132.800 205.000 C 131.828 205.990,131.123 206.800,131.233 206.800 C 131.343 206.800,132.228 205.990,133.200 205.000 C 134.172 204.010,134.877 203.200,134.767 203.200 C 134.657 203.200,133.772 204.010,132.800 205.000 M133.186 209.100 L 131.000 211.400 133.300 209.214 C 135.437 207.182,135.783 206.800,135.486 206.800 C 135.424 206.800,134.389 207.835,133.186 209.100 M112.544 210.800 C 112.544 212.890,112.612 213.745,112.694 212.700 C 112.776 211.655,112.776 209.945,112.694 208.900 C 112.612 207.855,112.544 208.710,112.544 210.800 M126.975 210.500 L 125.800 211.800 127.100 210.625 C 128.312 209.530,128.584 209.200,128.275 209.200 C 128.206 209.200,127.621 209.785,126.975 210.500 M119.600 217.400 C 118.628 218.390,117.923 219.200,118.033 219.200 C 118.143 219.200,119.028 218.390,120.000 217.400 C 120.972 216.410,121.677 215.600,121.567 215.600 C 121.457 215.600,120.572 216.410,119.600 217.400 M186.000 219.000 C 185.028 219.990,184.323 220.800,184.433 220.800 C 184.543 220.800,185.428 219.990,186.400 219.000 C 187.372 218.010,188.077 217.200,187.967 217.200 C 187.857 217.200,186.972 218.010,186.000 219.000 M120.400 221.000 C 119.428 221.990,118.723 222.800,118.833 222.800 C 118.943 222.800,119.828 221.990,120.800 221.000 C 121.772 220.010,122.477 219.200,122.367 219.200 C 122.257 219.200,121.372 220.010,120.400 221.000 M179.200 221.000 C 178.228 221.990,177.523 222.800,177.633 222.800 C 177.743 222.800,178.628 221.990,179.600 221.000 C 180.572 220.010,181.277 219.200,181.167 219.200 C 181.057 219.200,180.172 220.010,179.200 221.000 M113.775 222.900 L 112.600 224.200 113.900 223.025 C 115.112 221.930,115.384 221.600,115.075 221.600 C 115.006 221.600,114.421 222.185,113.775 222.900 M179.200 225.400 C 178.228 226.390,177.523 227.200,177.633 227.200 C 177.743 227.200,178.628 226.390,179.600 225.400 C 180.572 224.410,181.277 223.600,181.167 223.600 C 181.057 223.600,180.172 224.410,179.200 225.400 M207.583 231.300 C 208.564 232.345,209.419 233.200,209.483 233.200 C 209.784 233.200,209.466 232.841,207.700 231.183 L 205.800 229.400 207.583 231.300 M172.575 231.700 L 171.400 233.000 172.700 231.825 C 173.912 230.730,174.184 230.400,173.875 230.400 C 173.806 230.400,173.221 230.985,172.575 231.700 M235.375 231.700 L 234.200 233.000 235.500 231.825 C 236.215 231.179,236.800 230.594,236.800 230.525 C 236.800 230.216,236.470 230.488,235.375 231.700 M165.586 233.900 L 163.400 236.200 165.700 234.014 C 167.837 231.982,168.183 231.600,167.886 231.600 C 167.824 231.600,166.789 232.635,165.586 233.900 M205.183 233.300 C 206.841 235.066,207.200 235.384,207.200 235.083 C 207.200 235.019,206.345 234.164,205.300 233.183 L 203.400 231.400 205.183 233.300 M106.800 233.800 C 105.828 234.790,105.123 235.600,105.233 235.600 C 105.343 235.600,106.228 234.790,107.200 233.800 C 108.172 232.810,108.877 232.000,108.767 232.000 C 108.657 232.000,107.772 232.810,106.800 233.800 M288.520 236.800 C 288.520 238.010,288.595 238.505,288.687 237.900 C 288.778 237.295,288.778 236.305,288.687 235.700 C 288.595 235.095,288.520 235.590,288.520 236.800 M210.000 236.996 C 210.000 237.270,212.449 238.484,212.632 238.301 C 212.719 238.214,212.162 237.844,211.395 237.478 C 210.628 237.112,210.000 236.895,210.000 236.996 M220.707 237.090 C 221.426 237.179,222.506 237.177,223.107 237.086 C 223.708 236.995,223.120 236.922,221.800 236.924 C 220.480 236.926,219.988 237.001,220.707 237.090 M165.375 238.500 L 164.200 239.800 165.500 238.625 C 166.712 237.530,166.984 237.200,166.675 237.200 C 166.606 237.200,166.021 237.785,165.375 238.500 M159.775 239.300 L 158.600 240.600 159.900 239.425 C 161.112 238.330,161.384 238.000,161.075 238.000 C 161.006 238.000,160.421 238.585,159.775 239.300 M288.093 240.400 C 288.093 241.170,288.175 241.485,288.276 241.100 C 288.376 240.715,288.376 240.085,288.276 239.700 C 288.175 239.315,288.093 239.630,288.093 240.400 M220.700 240.282 C 221.195 240.378,222.005 240.378,222.500 240.282 C 222.995 240.187,222.590 240.109,221.600 240.109 C 220.610 240.109,220.205 240.187,220.700 240.282 M152.786 245.900 L 150.600 248.200 152.900 246.014 C 154.165 244.811,155.200 243.776,155.200 243.714 C 155.200 243.417,154.818 243.763,152.786 245.900 M152.581 250.500 L 151.000 252.200 152.700 250.619 C 154.281 249.148,154.584 248.800,154.281 248.800 C 154.216 248.800,153.451 249.565,152.581 250.500 M146.378 251.900 L 145.000 253.400 146.500 252.022 C 147.896 250.738,148.184 250.400,147.878 250.400 C 147.812 250.400,147.137 251.075,146.378 251.900 M145.775 256.900 L 144.600 258.200 145.900 257.025 C 147.112 255.930,147.384 255.600,147.075 255.600 C 147.006 255.600,146.421 256.185,145.775 256.900 M140.181 257.700 L 138.600 259.400 140.300 257.819 C 141.881 256.348,142.184 256.000,141.881 256.000 C 141.816 256.000,141.051 256.765,140.181 257.700 M139.578 262.700 L 138.200 264.200 139.700 262.822 C 141.096 261.538,141.384 261.200,141.078 261.200 C 141.012 261.200,140.337 261.875,139.578 262.700 M103.200 264.200 C 103.946 264.970,104.647 265.600,104.757 265.600 C 104.867 265.600,104.346 264.970,103.600 264.200 C 102.854 263.430,102.153 262.800,102.043 262.800 C 101.933 262.800,102.454 263.430,103.200 264.200 M133.178 264.300 L 131.800 265.800 133.300 264.422 C 134.696 263.138,134.984 262.800,134.678 262.800 C 134.612 262.800,133.937 263.475,133.178 264.300 M136.383 289.700 C 138.041 291.466,138.400 291.784,138.400 291.483 C 138.400 291.419,137.545 290.564,136.500 289.583 L 134.600 287.800 136.383 289.700 M260.575 289.300 L 259.400 290.600 260.700 289.425 C 261.415 288.779,262.000 288.194,262.000 288.125 C 262.000 287.816,261.670 288.088,260.575 289.300 M238.800 303.800 C 237.370 304.549,236.340 305.170,236.511 305.181 C 236.937 305.207,241.600 302.837,241.600 302.594 C 241.600 302.325,241.694 302.285,238.800 303.800 " stroke="none" fill="#c69824" fill-rule="evenodd"></path></g></svg>