<svg width="NaN" height="NaN" xmlns="http://www.w3.org/2000/svg">

 <g>
  <title>background</title>
  <rect fill="none" id="canvas_background" height="402" width="582" y="-1" x="-1"/>
 </g>
 <g>
  <title>Layer 1</title>
  <rect id="svg_1" height="210.000014" width="1159.999938" y="27.953112" x="118.000039" stroke-width="1.5" fill="#242424"/>
  <g stroke="null" id="svgg">
   <path fill-rule="evenodd" fill="#242424" d="m100.46045,59.781196c-3.778881,1.016528 -6.982727,4.195622 -8.685957,8.619762l-0.663103,1.722226l-0.055259,28.320019c-0.030507,15.57601 0.021298,33.448705 0.115122,39.7171l0.170381,11.397081l2.072197,-1.970314c3.253924,-3.093905 9.460153,-8.922533 11.378661,-10.686202c0.959542,-0.88241 2.729543,-2.545924 3.932568,-3.696568c3.557271,-3.401856 5.350296,-5.041194 6.389273,-5.841292l0.978537,-0.753474l0,-27.749589c0,-24.435226 -0.043171,-27.918243 -0.360908,-29.163863c-1.849435,-7.253263 -8.67905,-11.687764 -15.271513,-9.914885m77.222706,21.412697c-0.253268,0.061015 -0.926732,0.226215 -1.496586,0.366664c-3.777729,0.933064 -7.100727,4.005671 -8.587528,7.941693l-0.507113,1.342898l-0.115122,29.471239l-0.115122,29.471239l-0.498478,1.215689c-4.141515,10.098504 -18.708481,11.285988 -23.922933,1.950167c-0.819093,-1.466079 -0.772469,-1.462625 -1.481621,-0.118576c-3.044402,5.76934 -11.016603,8.310659 -17.196353,5.481535l-1.273825,-0.583093l-0.722391,0.600937c-0.711454,0.591152 -8.990455,8.338289 -13.271267,12.418213c-5.265682,5.018169 -6.922288,6.228677 -9.612689,7.023595c-1.238137,0.366088 -1.244469,0.323493 0.413864,2.802646c11.583579,17.317807 33.516627,24.928524 54.521793,18.919154c19.40094,-5.550033 34.086481,-20.287955 37.832552,-37.967821l0.536469,-2.532685l0.073102,-33.615632c0.078283,-36.168463 0.116849,-34.921116 -1.147767,-37.59943c-2.076226,-4.397086 -8.815469,-7.703391 -13.428985,-6.588434m-26.841852,19.628306c-3.039797,0.793766 -5.507438,2.838334 -6.941858,5.752072l-0.752898,1.529396l0,20.612024l0,20.611448l0.733327,1.547816c3.927388,8.290513 16.260987,8.298571 20.172257,0.013815l0.737357,-1.56163l0,-20.503809l0,-20.503233l-0.882986,-1.787269c-2.383026,-4.821311 -7.651586,-7.123751 -13.065199,-5.710628m-24.643597,0.142176c-2.937339,0.810459 -5.545428,2.989719 -6.90099,5.767614l-0.786283,1.611708l-0.067922,8.605372c-0.065044,8.203596 -0.048927,8.597313 0.345366,8.435567c9.856172,-4.043086 21.214687,5.356628 18.600842,15.393542c-0.950908,3.65052 -1.657757,4.492637 -11.115032,13.243638c-2.472821,2.287475 -2.47167,2.294958 0.361483,2.925251c5.779701,1.285913 11.596818,-1.803962 13.174565,-6.998268c0.461064,-1.51846 0.469698,-1.965709 0.407532,-21.577897l-0.063893,-20.027204l-0.787435,-1.611708c-2.293806,-4.694676 -7.998679,-7.192824 -13.168233,-5.767614m-4.809223,25.940447c-1.882245,0.301044 -4.713671,1.803962 -6.335741,3.362139c-0.762108,0.732176 -2.16084,2.050899 -3.108295,2.931007c-0.947454,0.879532 -2.55168,2.384177 -3.564754,3.342568c-1.013074,0.958966 -3.3961,3.188305 -5.295613,4.953701c-1.899513,1.765396 -4.541564,4.24973 -5.871223,5.521252c-1.329659,1.271523 -4.574374,4.332042 -7.210093,6.801409c-5.194306,4.866208 -6.313292,6.250551 -6.94819,8.595011c-2.483182,9.17465 7.663673,16.970138 16.575845,12.734223c1.686538,-0.801249 3.80651,-2.571251 8.862094,-7.399468c1.458596,-1.392977 5.860287,-5.53737 9.781343,-9.209762c15.15121,-14.18879 15.250791,-14.288371 16.186157,-16.220118c3.960198,-8.178845 -3.477261,-16.948265 -13.071531,-15.411962" id="path0"/>
   <path fill-rule="evenodd" fill="#f7bb24" d="m131.864589,26.509203c-5.58054,0.509991 -13.482516,1.83447 -16.347328,2.739904c-0.759805,0.240029 -3.091026,0.918098 -5.180491,1.506947c-16.121113,4.543291 -31.008694,13.239609 -44.073317,25.744739c-2.269055,2.171777 -4.423564,4.364276 -4.786774,4.871389c-0.363786,0.507688 -1.262889,1.544362 -1.998518,2.304167c-1.758489,1.81605 -3.704051,4.304413 -6.172843,7.895644c-1.106898,1.609406 -2.341582,3.360412 -2.744509,3.8917c-0.734479,0.969327 -3.440422,5.686453 -4.992267,8.704377c-5.347994,10.397246 -8.314113,19.141915 -10.409334,30.692108c-0.314859,1.734313 -0.672313,3.643612 -0.794918,4.242247c-1.267494,6.201624 -1.137981,26.333013 0.197434,30.656996c0.122605,0.395444 0.341912,1.496011 0.488693,2.445767c1.282459,8.307781 4.348735,18.656676 7.53819,25.441968c3.071456,6.533751 6.922288,13.592458 8.22662,15.080986c0.277444,0.316586 0.830605,1.118411 1.229503,1.782089c0.737357,1.228352 3.540002,5.11775 4.623876,6.416326c0.328098,0.393717 0.796644,0.963571 1.040703,1.266342c2.842363,3.529066 8.578894,9.482026 11.874262,12.322662c6.140033,5.293311 10.347168,8.422328 14.73562,10.959042c0.569854,0.329825 1.761367,1.082723 2.647807,1.673874c2.071621,1.38204 9.11306,4.810374 13.053687,6.355887c1.684811,0.661376 3.178519,1.289367 3.318392,1.39643c0.949181,0.722966 9.758894,3.285007 15.20762,4.421837c8.51385,1.776909 14.903122,2.323163 25.147832,2.149328c13.173414,-0.222761 22.59903,-1.911026 34.969467,-6.264365c0.16002,-0.055834 0.355151,-0.096127 0.434586,-0.088644c0.08001,0.007483 0.208371,-0.08001 0.285503,-0.193981c0.077707,-0.114546 1.531699,-0.755776 3.231475,-1.425786c4.534657,-1.786694 11.092583,-5.062491 14.089209,-7.037985c1.441903,-0.950908 2.710548,-1.728557 2.819914,-1.728557c0.394293,-0.001151 7.741381,-5.250716 9.586787,-6.850336c0.44322,-0.384508 2.100977,-1.80684 3.683905,-3.160675c5.66976,-4.850667 12.777394,-12.818262 17.116343,-19.186813c0.716635,-1.052215 1.303181,-1.984704 1.303757,-2.072197c0,-0.087493 0.303922,-0.51402 0.674615,-0.94803c1.531123,-1.790723 8.064298,-13.949336 8.071205,-15.021122c0.001727,-0.210673 0.098429,-0.417893 0.214703,-0.460488c1.28764,-0.466244 6.220043,-17.119797 7.412707,-25.028105c0.260751,-1.725679 0.531864,-3.293641 0.603815,-3.483593c1.172518,-3.118656 1.286489,-22.411957 0.165776,-28.204897c-0.048927,-0.253268 -0.246361,-1.444781 -0.438615,-2.647807c-1.444781,-9.051469 -4.362549,-19.711769 -6.868756,-25.096602c-0.265356,-0.569854 -0.507688,-1.181152 -0.538771,-1.35844c-0.031083,-0.177288 -0.144478,-0.384508 -0.251542,-0.460488c-0.107063,-0.075981 -0.520927,-0.863415 -0.920401,-1.749855c-0.399473,-0.88644 -1.005591,-2.233367 -1.348079,-2.993173c-0.341912,-0.759805 -1.318723,-2.624782 -2.17005,-4.144393c-0.851903,-1.519611 -1.780938,-3.177368 -2.064714,-3.683905c-0.283776,-0.506537 -0.764986,-1.250801 -1.068908,-1.653728c-0.303922,-0.403503 -0.552586,-0.83521 -0.552586,-0.959542c0,-0.124332 -0.085766,-0.260751 -0.190527,-0.303347c-0.105337,-0.04202 -1.199572,-1.569113 -2.432528,-3.393222c-2.511963,-3.717866 -4.419535,-6.152121 -6.422082,-8.195537c-0.74484,-0.759805 -1.49486,-1.640489 -1.667543,-1.957074c-0.172107,-0.316586 -1.639913,-1.871884 -3.261407,-3.455963c-6.101468,-5.959292 -8.231225,-7.802395 -12.503979,-10.816866c-1.329659,-0.937669 -2.521172,-1.822957 -2.647807,-1.966284c-0.355151,-0.402351 -2.414685,-1.82123 -3.568783,-2.459007c-0.569854,-0.315434 -1.761367,-1.018254 -2.647807,-1.562206c-0.88644,-0.544527 -2.906831,-1.647972 -4.489759,-2.452675c-1.582928,-0.804127 -2.996626,-1.559903 -3.141105,-1.679055c-1.576596,-1.295698 -11.366573,-5.053857 -17.706919,-6.79738c-2.147026,-0.59 -4.153027,-1.175396 -4.458676,-1.300879c-1.421757,-0.584244 -7.482356,-1.696899 -13.144058,-2.412958c-3.40531,-0.430556 -18.352178,-0.638927 -21.988307,-0.3068m-24.948095,33.129817c3.931993,1.215113 7.204337,4.553076 8.650845,8.822952l0.640654,1.891455l0.062742,28.209502l0.062742,28.210077l-0.642957,0.379903c-0.353425,0.208946 -1.888577,1.553572 -3.411066,2.987992c-1.522489,1.434996 -5.14135,4.836276 -8.041849,7.558912c-2.9005,2.722636 -6.988483,6.576346 -9.084855,8.563928l-3.811115,3.61368l-0.185346,-3.728803c-0.101883,-2.050899 -0.205493,-19.84013 -0.230244,-39.531753l-0.044898,-35.802951l0.539922,-1.718772c2.332372,-7.4294 8.962826,-11.475364 15.495425,-9.456123m76.233807,21.636034c4.24052,1.08445 7.786854,4.397661 9.081977,8.484494c0.545678,1.722801 0.653893,65.847498 0.116849,69.352964c-4.998598,32.62731 -45.117474,52.539967 -75.354851,37.402571c-7.505956,-3.757583 -15.978938,-11.633657 -19.223076,-17.868666l-0.318312,-0.611874l1.558752,-0.473727c2.590821,-0.786859 3.979193,-1.855767 10.634397,-8.187479c0.949757,-0.903132 4.192169,-3.956169 7.206063,-6.784141l5.479233,-5.14135l1.312967,0.58482c6.453165,2.874021 14.577327,0.275142 17.314929,-5.539672c0.703396,-1.494284 0.76844,-1.494284 1.524791,-0.001151c4.855272,9.580455 20.366814,8.219137 23.855011,-2.09407l0.518049,-1.531123l0.117424,-29.356117l0.117424,-29.356117l0.4956,-1.20763c2.557436,-6.233282 8.920806,-9.370358 15.562771,-7.671732m-50.83098,19.398637c3.851983,0.979113 7.253263,4.496091 7.948025,8.219713c0.335005,1.793601 0.311405,38.532494 -0.025327,40.134417c-1.389523,6.606278 -9.037079,10.3771 -15.457435,7.62223c-1.167337,-0.500781 -1.463201,-0.116849 4.200227,-5.458511c5.756677,-5.42973 6.415751,-6.167663 7.339605,-8.21741c4.862179,-10.789237 -5.638101,-21.043156 -17.756422,-17.339104c-0.542225,0.165776 -0.615327,-15.321591 -0.081737,-17.325865c1.516733,-5.696814 7.803547,-9.167167 13.833063,-7.635469m26.420506,0.478908c3.219388,1.590986 5.356052,4.096617 6.033546,7.074824c0.43401,1.906996 0.550283,38.297645 0.130088,40.550008c-2.017514,10.81111 -18.385564,11.645744 -21.665966,1.104596c-0.621659,-1.997367 -0.680947,-40.052681 -0.06562,-42.129482c1.831016,-6.181477 9.681187,-9.509655 15.567952,-6.599946m-31.579699,25.866769c7.356873,2.183865 10.805354,9.820485 7.192824,15.927133c-0.905435,1.530547 -2.685797,3.325875 -11.232456,11.330886c-2.907407,2.722636 -6.377185,5.986345 -7.711449,7.252688c-15.402752,14.619922 -15.727972,14.850742 -20.941848,14.850742c-9.115362,0 -14.629132,-8.390669 -10.666056,-16.232206c0.661376,-1.308362 2.822217,-3.507768 10.294787,-10.478983c2.781348,-2.594275 6.253429,-5.856833 7.715478,-7.24981c10.62749,-10.126709 14.029922,-13.221765 15.601337,-14.192819c2.425621,-1.499464 6.898112,-2.053201 9.747382,-1.20763" id="path1"/>
   <path fill-rule="evenodd" fill="#9d7a24" d="m153.219725,100.335233c0.348244,0.052381 0.918098,0.052381 1.266342,0c0.348244,-0.052956 0.063317,-0.096127 -0.633171,-0.096127c-0.696488,0 -0.981415,0.043171 -0.633171,0.096127m-12.841287,28.500185c0,10.384007 0.028205,14.598624 0.062742,9.365177c0.034537,-5.232872 0.034537,-13.728878 0,-18.880013c-0.034537,-5.15056 -0.062742,-0.869171 -0.062742,9.514836m24.636114,-0.115122c0,10.32069 0.028205,14.54279 0.062742,9.382445c0.034537,-5.160345 0.034537,-13.604546 0,-18.764891c-0.034537,-5.160345 -0.062742,-0.938245 -0.062742,9.382445m-74.171396,-6.446834c0,0.949757 0.040868,1.338294 0.090371,0.863415c0.050078,-0.474878 0.050078,-1.251952 0,-1.72683c-0.049502,-0.474878 -0.090371,-0.086342 -0.090371,0.863415m46.731485,15.426352c0,0.696488 0.043171,0.981415 0.096127,0.633171c0.052381,-0.348244 0.052381,-0.918098 0,-1.266342c-0.052956,-0.348244 -0.096127,-0.063317 -0.096127,0.633171m-46.506997,1.266342c0.001151,0.759805 0.044322,1.043006 0.095551,0.629142c0.051229,-0.413864 0.050078,-1.035523 -0.002302,-1.381464c-0.052381,-0.345942 -0.0944,-0.007483 -0.093249,0.752322m86.601122,47.142471l-0.676342,0.748293l0.748293,-0.676342c0.411561,-0.371844 0.748293,-0.708576 0.748293,-0.748293c0,-0.177864 -0.189951,-0.021298 -0.820244,0.676342" id="path2"/>
   <path fill-rule="evenodd" fill="#8d6c24" d="m103.144521,59.349489c0.286078,0.055259 0.700518,0.052956 0.920976,-0.004605c0.219883,-0.057561 -0.01439,-0.103034 -0.520927,-0.100156c-0.506537,0.002302 -0.686703,0.049502 -0.400049,0.104761m8.688835,3.521007c0.494449,0.506537 0.950908,0.920976 1.014225,0.920976c0.063317,0 -0.289532,-0.414439 -0.783981,-0.920976c-0.494449,-0.506537 -0.950908,-0.920976 -1.014225,-0.920976c-0.063317,0 0.289532,0.414439 0.783981,0.920976m-16.822206,0.057561l-0.676342,0.748293l0.748293,-0.676342c0.697639,-0.630293 0.854205,-0.820244 0.676342,-0.820244c-0.039717,0 -0.376449,0.336732 -0.748293,0.748293m21.138131,36.332512c-0.036263,17.70807 -0.136995,27.392711 -0.286078,27.572301c-0.130088,0.157717 -0.08001,0.148507 0.116273,-0.020722c0.304498,-0.261903 0.338459,-3.559573 0.286078,-27.572301l-0.059288,-27.274711l-0.056985,27.295433m-25.272163,-2.544197c0,13.233277 0.027629,18.646891 0.06159,12.030252c0.033961,-6.616639 0.033961,-17.443865 0,-24.060504c-0.033961,-6.616639 -0.06159,-1.203025 -0.06159,12.030252m88.245064,-15.724518c0.284927,0.055259 0.751171,0.055259 1.036098,0c0.284927,-0.054683 0.051805,-0.099581 -0.518049,-0.099581c-0.569854,0 -0.802976,0.044898 -0.518049,0.099581m13.293141,42.663073c0,17.285573 0.027629,24.356943 0.061015,15.714157c0.033385,-8.642786 0.033385,-22.785528 0,-31.428314c-0.033385,-8.642786 -0.061015,-1.571416 -0.061015,15.714157m-63.71256,-23.087723c0.413864,0.051229 1.035523,0.050078 1.381464,-0.002302c0.345942,-0.052381 0.007483,-0.0944 -0.752322,-0.093249c-0.759805,0.001151 -1.043006,0.044322 -0.629142,0.095551m14.208361,28.153092c0,10.700593 0.028205,15.078108 0.062742,9.727811c0.034537,-5.350296 0.034537,-14.105327 0,-19.455623c-0.034537,-5.350296 -0.062742,-0.972781 -0.062742,9.727811m-24.642446,-11.051715c0,4.368881 0.031083,6.15615 0.068498,3.97171c0.03799,-2.18444 0.03799,-5.758979 0,-7.94342c-0.037415,-2.18444 -0.068498,-0.397171 -0.068498,3.97171m-4.951398,11.224398l-0.793191,0.863415l0.863415,-0.793191c0.474878,-0.436888 0.863415,-0.825425 0.863415,-0.863415c0,-0.176137 -0.194556,-0.010361 -0.93364,0.793191m1.498313,1.496586l-0.91004,0.978537l0.978537,-0.91004c0.91004,-0.846723 1.08445,-1.047035 0.91004,-1.047035c-0.037415,0 -0.477756,0.440342 -0.978537,0.978537m-5.061916,1.841952l-1.373981,1.439025l1.439025,-1.373981c1.336567,-1.276703 1.544362,-1.504069 1.373981,-1.504069c-0.035112,0 -0.682674,0.647561 -1.439025,1.439025m1.608255,1.381464l-0.91004,0.978537l0.978537,-0.91004c0.91004,-0.846723 1.08445,-1.047035 0.91004,-1.047035c-0.037415,0 -0.477756,0.440342 -0.978537,0.978537m-20.281623,1.899513c0.000576,1.266342 0.039141,1.755035 0.085766,1.086176c0.046624,-0.669435 0.046624,-1.705533 -0.001151,-2.302441c-0.0472,-0.597483 -0.08519,-0.050078 -0.084615,1.216264m14.522068,0.633171l-0.676342,0.748293l0.748293,-0.676342c0.697639,-0.630293 0.854205,-0.820244 0.676342,-0.820244c-0.039717,0 -0.376449,0.336732 -0.748293,0.748293m2.201709,0.748293c-0.559493,0.569854 -0.965298,1.036098 -0.901981,1.036098c0.063317,0 0.572732,-0.466244 1.132225,-1.036098c0.559493,-0.569854 0.965298,-1.036098 0.901981,-1.036098c-0.063317,0 -0.572732,0.466244 -1.132225,1.036098m27.702965,0.805854c0,0.823123 0.04202,1.159854 0.092673,0.748293c0.051229,-0.411561 0.051229,-1.085025 0,-1.496586c-0.050654,-0.411561 -0.092673,-0.074829 -0.092673,0.748293m-33.236881,1.554147l-1.258284,1.323903l1.323903,-1.258284c1.230079,-1.16964 1.42924,-1.389523 1.258284,-1.389523c-0.035688,0 -0.631444,0.595756 -1.323903,1.323903m1.619767,1.323903c-0.559493,0.569854 -0.965298,1.036098 -0.901981,1.036098c0.063317,0 0.572732,-0.466244 1.132225,-1.036098c0.559493,-0.569854 0.965298,-1.036098 0.901981,-1.036098c-0.063317,0 -0.572732,0.466244 -1.132225,1.036098m-5.756101,2.532685c-0.559493,0.569854 -0.965298,1.036098 -0.901981,1.036098c0.063317,0 0.572732,-0.466244 1.132225,-1.036098c0.559493,-0.569854 0.965298,-1.036098 0.901981,-1.036098c-0.063317,0 -0.572732,0.466244 -1.132225,1.036098m2.172928,0.863415l-0.676342,0.748293l0.748293,-0.676342c0.697639,-0.630293 0.854205,-0.820244 0.676342,-0.820244c-0.039717,0 -0.376449,0.336732 -0.748293,0.748293m-5.750345,2.532685l-1.142586,1.208781l1.208781,-1.142586c0.66483,-0.628566 1.208781,-1.172518 1.208781,-1.208781c0,-0.171532 -0.213551,0.019571 -1.274976,1.142586m1.497162,1.496586l-1.258284,1.323903l1.323903,-1.258284c1.230079,-1.16964 1.42924,-1.389523 1.258284,-1.389523c-0.035688,0 -0.631444,0.595756 -1.323903,1.323903m32.809203,0.57561l-1.142586,1.208781l1.208781,-1.142586c0.66483,-0.628566 1.208781,-1.172518 1.208781,-1.208781c0,-0.171532 -0.213551,0.019571 -1.274976,1.142586m1.274976,1.669269c-0.559493,0.569854 -0.965298,1.036098 -0.901981,1.036098c0.063317,0 0.572732,-0.466244 1.132225,-1.036098c0.559493,-0.569854 0.965298,-1.036098 0.901981,-1.036098c-0.063317,0 -0.572732,0.466244 -1.132225,1.036098m-37.42905,0.863415l-0.676342,0.748293l0.748293,-0.676342c0.697639,-0.630293 0.854205,-0.820244 0.676342,-0.820244c-0.039717,0 -0.376449,0.336732 -0.748293,0.748293m50.783205,-0.660225c0,0.246937 0.684976,1.52364 0.817942,1.52364c0.063317,0 -0.05641,-0.336732 -0.265932,-0.748293c-0.427103,-0.840391 -0.55201,-1.015376 -0.55201,-0.775347m-18.892676,2.156811l-0.793191,0.863415l0.863415,-0.793191c0.803552,-0.739083 0.969327,-0.93364 0.793191,-0.93364c-0.03799,0 -0.426527,0.388537 -0.863415,0.863415m2.315104,0.633171c-0.559493,0.569854 -0.965298,1.036098 -0.901981,1.036098c0.063317,0 0.572732,-0.466244 1.132225,-1.036098c0.559493,-0.569854 0.965298,-1.036098 0.901981,-1.036098c-0.063317,0 -0.572732,0.466244 -1.132225,1.036098m18.870227,0.633171c0.564674,0.601513 1.05682,1.093659 1.093659,1.093659c0.173259,0 -0.009785,-0.206644 -1.026313,-1.161006l-1.093659,-1.026313l1.026313,1.093659m15.997357,0.230244l-0.676342,0.748293l0.748293,-0.676342c0.411561,-0.371844 0.748293,-0.708576 0.748293,-0.748293c0,-0.177864 -0.189951,-0.021298 -0.820244,0.676342m-73.442098,1.15122l-1.142586,1.208781l1.208781,-1.142586c0.66483,-0.628566 1.208781,-1.172518 1.208781,-1.208781c0,-0.171532 -0.213551,0.019571 -1.274976,1.142586m56.063277,0.230244c0.954362,1.016528 1.161006,1.199572 1.161006,1.026313c0,-0.036839 -0.492147,-0.528986 -1.093659,-1.093659l-1.093659,-1.026313l1.026313,1.093659m-23.244864,0.287805c-0.559493,0.569854 -0.965298,1.036098 -0.901981,1.036098c0.063317,0 0.572732,-0.466244 1.132225,-1.036098c0.559493,-0.569854 0.965298,-1.036098 0.901981,-1.036098c-0.063317,0 -0.572732,0.466244 -1.132225,1.036098m31.258509,1.42924c0.286078,0.055259 0.700518,0.052956 0.920976,-0.004605c0.219883,-0.057561 -0.01439,-0.103034 -0.520927,-0.100156c-0.506537,0.002302 -0.686703,0.049502 -0.400049,0.104761m2.302441,0c0.286078,0.055259 0.700518,0.052956 0.920976,-0.004605c0.219883,-0.057561 -0.01439,-0.103034 -0.520927,-0.100156c-0.506537,0.002302 -0.686703,0.049502 -0.400049,0.104761m-26.016427,0.234273c0.413864,0.051229 1.035523,0.050078 1.381464,-0.002302c0.345942,-0.052381 0.007483,-0.0944 -0.752322,-0.093249c-0.759805,0.001151 -1.043006,0.044322 -0.629142,0.095551m-11.458671,2.020392c-0.559493,0.569854 -0.965298,1.036098 -0.901981,1.036098c0.063317,0 0.572732,-0.466244 1.132225,-1.036098c0.559493,-0.569854 0.965298,-1.036098 0.901981,-1.036098c-0.063317,0 -0.572732,0.466244 -1.132225,1.036098m11.224398,0.051229c0.411561,0.051229 1.085025,0.051229 1.496586,0c0.411561,-0.050654 0.074829,-0.092673 -0.748293,-0.092673c-0.823123,0 -1.159854,0.04202 -0.748293,0.092673m-9.27826,1.04243l-0.91004,0.978537l0.978537,-0.91004c0.91004,-0.846723 1.08445,-1.047035 0.91004,-1.047035c-0.037415,0 -0.477756,0.440342 -0.978537,0.978537m-5.756101,2.532685l-0.91004,0.978537l0.978537,-0.91004c0.91004,-0.846723 1.08445,-1.047035 0.91004,-1.047035c-0.037415,0 -0.477756,0.440342 -0.978537,0.978537m1.500616,1.496586l-1.489679,1.554147l1.554147,-1.489679c0.854781,-0.819669 1.554147,-1.519035 1.554147,-1.554147c0,-0.169805 -0.234273,0.046049 -1.618616,1.489679m-32.394763,0.748293c0,0.569854 0.044898,0.802976 0.099581,0.518049c0.055259,-0.284927 0.055259,-0.751171 0,-1.036098c-0.054683,-0.284927 -0.099581,-0.051805 -0.099581,0.518049m27.212545,1.208781l-1.142586,1.208781l1.208781,-1.142586c0.66483,-0.628566 1.208781,-1.172518 1.208781,-1.208781c0,-0.171532 -0.213551,0.019571 -1.274976,1.142586m1.735465,1.208781c-0.559493,0.569854 -0.965298,1.036098 -0.901981,1.036098c0.063317,0 0.572732,-0.466244 1.132225,-1.036098c0.559493,-0.569854 0.965298,-1.036098 0.901981,-1.036098c-0.063317,0 -0.572732,0.466244 -1.132225,1.036098m-5.885614,2.705368l-0.676342,0.748293l0.748293,-0.676342c0.697639,-0.630293 0.854205,-0.820244 0.676342,-0.820244c-0.039717,0 -0.376449,0.336732 -0.748293,0.748293m1.84886,1.15122l-1.373981,1.439025l1.439025,-1.373981c0.791464,-0.756352 1.439025,-1.403913 1.439025,-1.439025c0,-0.170381 -0.227366,0.037415 -1.504069,1.373981m-21.760366,1.15122c0.954362,1.016528 1.161006,1.199572 1.161006,1.026313c0,-0.036839 -0.492147,-0.528986 -1.093659,-1.093659l-1.093659,-1.026313l1.026313,1.093659m17.035182,0.345366l-0.793191,0.863415l0.863415,-0.793191c0.803552,-0.739083 0.969327,-0.93364 0.793191,-0.93364c-0.03799,0 -0.426527,0.388537 -0.863415,0.863415m1.49486,1.496586l-0.676342,0.748293l0.748293,-0.676342c0.697639,-0.630293 0.854205,-0.820244 0.676342,-0.820244c-0.039717,0 -0.376449,0.336732 -0.748293,0.748293m76.671271,8.058542l-0.676342,0.748293l0.748293,-0.676342c0.411561,-0.371844 0.748293,-0.708576 0.748293,-0.748293c0,-0.177864 -0.189951,-0.021298 -0.820244,0.676342m-77.692979,3.229173c0,0.035112 0.802976,0.838088 1.784391,1.784391l1.784391,1.721074l-1.721074,-1.784391c-1.598469,-1.657182 -1.847709,-1.889728 -1.847709,-1.721074m35.515146,15.758479c0.348244,0.052381 0.918098,0.052381 1.266342,0c0.348244,-0.052956 0.063317,-0.096127 -0.633171,-0.096127c-0.696488,0 -0.981415,0.043171 -0.633171,0.096127" id="path3"/>
   <path fill-rule="evenodd" fill="#c69824" d="m192.645566,123.654927c0,17.158938 0.027629,24.178504 0.061015,15.599035c0.033385,-8.579469 0.033385,-22.618601 0,-31.19807c-0.033385,-8.579469 -0.061015,-1.559903 -0.061015,15.599035m-35.339009,-22.909284c1.051064,0.404654 1.464928,0.398898 0.57561,-0.008059c-0.379903,-0.17441 -0.846147,-0.313132 -1.036098,-0.309678c-0.189951,0.004029 0.017268,0.146781 0.460488,0.317737m-66.456493,25.326846c0.000576,1.266342 0.039141,1.755035 0.085766,1.086176c0.046624,-0.669435 0.046624,-1.705533 -0.001151,-2.302441c-0.0472,-0.597483 -0.08519,-0.050078 -0.084615,1.216264m32.555934,-1.333689c0.286078,0.055259 0.700518,0.052956 0.920976,-0.004605c0.219883,-0.057561 -0.01439,-0.103034 -0.520927,-0.100156c-0.506537,0.002302 -0.686703,0.049502 -0.400049,0.104761m-9.167743,5.996131l-0.793191,0.863415l0.863415,-0.793191c0.474878,-0.436888 0.863415,-0.825425 0.863415,-0.863415c0,-0.176137 -0.194556,-0.010361 -0.93364,0.793191m-3.671241,0.863415c-0.559493,0.569854 -0.965298,1.036098 -0.901981,1.036098c0.063317,0 0.572732,-0.466244 1.132225,-1.036098c0.559493,-0.569854 0.965298,-1.036098 0.901981,-1.036098c-0.063317,0 -0.572732,0.466244 -1.132225,1.036098m0.106488,2.475124l-1.142586,1.208781l1.208781,-1.142586c0.66483,-0.628566 1.208781,-1.172518 1.208781,-1.208781c0,-0.171532 -0.213551,0.019571 -1.274976,1.142586m-3.689661,0.920976l-0.676342,0.748293l0.748293,-0.676342c0.411561,-0.371844 0.748293,-0.708576 0.748293,-0.748293c0,-0.177864 -0.189951,-0.021298 -0.820244,0.676342m28.745395,2.82049c0.001727,0.633171 0.046624,0.865142 0.099581,0.515171c0.052956,-0.350547 0.051805,-0.868596 -0.002878,-1.15122c-0.054683,-0.2832 -0.098429,0.002878 -0.096703,0.636049m-29.205883,0.172683l-0.676342,0.748293l0.748293,-0.676342c0.697639,-0.630293 0.854205,-0.820244 0.676342,-0.820244c-0.039717,0 -0.376449,0.336732 -0.748293,0.748293m-3.784637,0.978537c-0.559493,0.569854 -0.965298,1.036098 -0.901981,1.036098c0.063317,0 0.572732,-0.466244 1.132225,-1.036098c0.559493,-0.569854 0.965298,-1.036098 0.901981,-1.036098c-0.063317,0 -0.572732,0.466244 -1.132225,1.036098m0.222186,2.360002l-1.258284,1.323903l1.323903,-1.258284c1.230079,-1.16964 1.42924,-1.389523 1.258284,-1.389523c-0.035688,0 -0.631444,0.595756 -1.323903,1.323903m-11.881745,0.978537c0,1.203025 0.039141,1.695172 0.086342,1.093659c0.0472,-0.601513 0.0472,-1.585806 0,-2.187319c-0.0472,-0.601513 -0.086342,-0.109366 -0.086342,1.093659m8.30663,-0.172683l-0.676342,0.748293l0.748293,-0.676342c0.697639,-0.630293 0.854205,-0.820244 0.676342,-0.820244c-0.039717,0 -0.376449,0.336732 -0.748293,0.748293m-4.245125,3.97171c-0.559493,0.569854 -0.965298,1.036098 -0.901981,1.036098c0.063317,0 0.572732,-0.466244 1.132225,-1.036098c0.559493,-0.569854 0.965298,-1.036098 0.901981,-1.036098c-0.063317,0 -0.572732,0.466244 -1.132225,1.036098m38.220513,0.920976c-0.559493,0.569854 -0.965298,1.036098 -0.901981,1.036098c0.063317,0 0.572732,-0.466244 1.132225,-1.036098c0.559493,-0.569854 0.965298,-1.036098 0.901981,-1.036098c-0.063317,0 -0.572732,0.466244 -1.132225,1.036098m-37.760025,1.15122c-0.559493,0.569854 -0.965298,1.036098 -0.901981,1.036098c0.063317,0 0.572732,-0.466244 1.132225,-1.036098c0.559493,-0.569854 0.965298,-1.036098 0.901981,-1.036098c-0.063317,0 -0.572732,0.466244 -1.132225,1.036098m33.845876,0c-0.559493,0.569854 -0.965298,1.036098 -0.901981,1.036098c0.063317,0 0.572732,-0.466244 1.132225,-1.036098c0.559493,-0.569854 0.965298,-1.036098 0.901981,-1.036098c-0.063317,0 -0.572732,0.466244 -1.132225,1.036098m-37.659294,1.093659l-0.676342,0.748293l0.748293,-0.676342c0.697639,-0.630293 0.854205,-0.820244 0.676342,-0.820244c-0.039717,0 -0.376449,0.336732 -0.748293,0.748293m37.659294,1.439025c-0.559493,0.569854 -0.965298,1.036098 -0.901981,1.036098c0.063317,0 0.572732,-0.466244 1.132225,-1.036098c0.559493,-0.569854 0.965298,-1.036098 0.901981,-1.036098c-0.063317,0 -0.572732,0.466244 -1.132225,1.036098m16.337543,3.3961c0.564674,0.601513 1.05682,1.093659 1.093659,1.093659c0.173259,0 -0.009785,-0.206644 -1.026313,-1.161006l-1.093659,-1.026313l1.026313,1.093659m-20.15096,0.230244l-0.676342,0.748293l0.748293,-0.676342c0.697639,-0.630293 0.854205,-0.820244 0.676342,-0.820244c-0.039717,0 -0.376449,0.336732 -0.748293,0.748293m36.148317,0l-0.676342,0.748293l0.748293,-0.676342c0.411561,-0.371844 0.748293,-0.708576 0.748293,-0.748293c0,-0.177864 -0.189951,-0.021298 -0.820244,0.676342m-40.171256,1.266342l-1.258284,1.323903l1.323903,-1.258284c1.230079,-1.16964 1.42924,-1.389523 1.258284,-1.389523c-0.035688,0 -0.631444,0.595756 -1.323903,1.323903m22.792435,-0.345366c0.954362,1.016528 1.161006,1.199572 1.161006,1.026313c0,-0.036839 -0.492147,-0.528986 -1.093659,-1.093659l-1.093659,-1.026313l1.026313,1.093659m-56.630253,0.287805c-0.559493,0.569854 -0.965298,1.036098 -0.901981,1.036098c0.063317,0 0.572732,-0.466244 1.132225,-1.036098c0.559493,-0.569854 0.965298,-1.036098 0.901981,-1.036098c-0.063317,0 -0.572732,0.466244 -1.132225,1.036098m104.599875,1.72683c0,0.696488 0.043171,0.981415 0.096127,0.633171c0.052381,-0.348244 0.052381,-0.918098 0,-1.266342c-0.052956,-0.348244 -0.096127,-0.063317 -0.096127,0.633171m-45.196908,0.11282c0,0.157717 1.409669,0.856508 1.515006,0.751171c0.050078,-0.050078 -0.270537,-0.263054 -0.71203,-0.473727c-0.441493,-0.210673 -0.802976,-0.335581 -0.802976,-0.277444m6.163058,0.054107c0.413864,0.051229 1.035523,0.050078 1.381464,-0.002302c0.345942,-0.052381 0.007483,-0.0944 -0.752322,-0.093249c-0.759805,0.001151 -1.043006,0.044322 -0.629142,0.095551m-31.84966,0.81161l-0.676342,0.748293l0.748293,-0.676342c0.697639,-0.630293 0.854205,-0.820244 0.676342,-0.820244c-0.039717,0 -0.376449,0.336732 -0.748293,0.748293m-3.223417,0.460488l-0.676342,0.748293l0.748293,-0.676342c0.697639,-0.630293 0.854205,-0.820244 0.676342,-0.820244c-0.039717,0 -0.376449,0.336732 -0.748293,0.748293m73.861142,0.633171c0,0.44322 0.0472,0.624537 0.105337,0.402927c0.057561,-0.22161 0.057561,-0.584244 0,-0.805854c-0.058137,-0.22161 -0.105337,-0.040293 -0.105337,0.402927m-38.792094,-0.067922c0.284927,0.055259 0.751171,0.055259 1.036098,0c0.284927,-0.054683 0.051805,-0.099581 -0.518049,-0.099581c-0.569854,0 -0.802976,0.044898 -0.518049,0.099581m-39.091987,3.233778l-1.258284,1.323903l1.323903,-1.258284c0.728147,-0.692459 1.323903,-1.288215 1.323903,-1.323903c0,-0.170956 -0.219883,0.028205 -1.389523,1.258284m-0.118,2.647807l-0.91004,0.978537l0.978537,-0.91004c0.91004,-0.846723 1.08445,-1.047035 0.91004,-1.047035c-0.037415,0 -0.477756,0.440342 -0.978537,0.978537m-3.57051,0.805854l-0.793191,0.863415l0.863415,-0.793191c0.803552,-0.739083 0.969327,-0.93364 0.793191,-0.93364c-0.03799,0 -0.426527,0.388537 -0.863415,0.863415m-0.347093,2.878051l-0.676342,0.748293l0.748293,-0.676342c0.697639,-0.630293 0.854205,-0.820244 0.676342,-0.820244c-0.039717,0 -0.376449,0.336732 -0.748293,0.748293m-3.219963,0.460488l-0.91004,0.978537l0.978537,-0.91004c0.91004,-0.846723 1.08445,-1.047035 0.91004,-1.047035c-0.037415,0 -0.477756,0.440342 -0.978537,0.978537m-0.347093,2.878051l-0.793191,0.863415l0.863415,-0.793191c0.803552,-0.739083 0.969327,-0.93364 0.793191,-0.93364c-0.03799,0 -0.426527,0.388537 -0.863415,0.863415m-20.939546,0.863415c0.429405,0.44322 0.832908,0.805854 0.896225,0.805854c0.063317,0 -0.236576,-0.362634 -0.665981,-0.805854c-0.429405,-0.44322 -0.832908,-0.805854 -0.896225,-0.805854c-0.063317,0 0.236576,0.362634 0.665981,0.805854m17.255641,0.057561l-0.793191,0.863415l0.863415,-0.793191c0.803552,-0.739083 0.969327,-0.93364 0.793191,-0.93364c-0.03799,0 -0.426527,0.388537 -0.863415,0.863415m1.844831,14.620498c0.954362,1.016528 1.161006,1.199572 1.161006,1.026313c0,-0.036839 -0.492147,-0.528986 -1.093659,-1.093659l-1.093659,-1.026313l1.026313,1.093659m71.486175,-0.230244l-0.676342,0.748293l0.748293,-0.676342c0.411561,-0.371844 0.748293,-0.708576 0.748293,-0.748293c0,-0.177864 -0.189951,-0.021298 -0.820244,0.676342m-12.533911,8.346347c-0.823123,0.431132 -1.416001,0.788586 -1.317572,0.794918c0.24521,0.014966 2.92928,-1.34923 2.92928,-1.489103c0,-0.154839 0.054107,-0.177864 -1.611708,0.694186" id="path4"/>
  </g>
  <ellipse stroke="null" ry="104.999996" rx="133.500013" id="svg_2" cy="132.953121" cx="1286.499999" stroke-width="1.5" fill="#242424"/>
 </g>
</svg>